<svg width="20" height="20" viewBox="0 0 20 20" fill="none"
    xmlns="http://www.w3.org/2000/svg">
    <path fill-rule="evenodd" clip-rule="evenodd"
        d="M7.93563 7.44443C7.85143 7.64607 7.66159 7.78375 7.44377 7.80115L3.48604 8.11721C2.96819 8.15856 2.75865 8.80523 3.15384 9.14243L6.16586 11.7125C6.33271 11.8549 6.4056 12.0788 6.35452 12.2921L5.43371 16.1374C5.31293 16.6418 5.86114 17.0412 6.30421 16.7716L9.69705 14.7073C9.8833 14.594 10.1172 14.594 10.3035 14.7073L13.6963 16.7716C14.1394 17.0412 14.6876 16.6418 14.5668 16.1374L13.646 12.2921C13.5949 12.0788 13.6678 11.8549 13.8346 11.7125L16.8467 9.14243C17.2419 8.80523 17.0323 8.15856 16.5145 8.11721L12.5567 7.80115C12.3389 7.78375 12.1491 7.64607 12.0649 7.44443L10.5385 3.78891C10.3389 3.31081 9.66159 3.31081 9.46196 3.78891L7.93563 7.44443ZM13.3482 6.19238L12.0765 3.14674C11.3065 1.30264 8.69396 1.30266 7.92398 3.14674L6.65229 6.19238L3.35337 6.45583C1.35593 6.61534 0.547725 9.10963 2.07201 10.4103L4.5791 12.5495L3.81287 15.7493C3.347 17.6947 5.46153 19.2352 7.17051 18.1954L10.0003 16.4737L12.83 18.1954C14.539 19.2352 16.6535 17.6947 16.1876 15.7493L15.4214 12.5495L17.9285 10.4103C19.4528 9.10961 18.6446 6.61534 16.6471 6.45583L13.3482 6.19238Z"
        fill="#777E91" />
</svg>