<svg width="16" height="16"
viewBox="0 0 16 16" fill="none" xmlns="http://www.w3.org/2000/svg">
<path fill-rule="evenodd" clip-rule="evenodd"
    d="M3.52827 3.52827C3.78862 3.26792 4.21073 3.26792 4.47108 3.52827L7.99967 7.05687L11.5283 3.52827C11.7886 3.26792 12.2107 3.26792 12.4711 3.52827C12.7314 3.78862 12.7314 4.21073 12.4711 4.47108L8.94248 7.99967L12.4711 11.5283C12.7314 11.7886 12.7314 12.2107 12.4711 12.4711C12.2107 12.7314 11.7886 12.7314 11.5283 12.4711L7.99967 8.94248L4.47108 12.4711C4.21073 12.7314 3.78862 12.7314 3.52827 12.4711C3.26792 12.2107 3.26792 11.7886 3.52827 11.5283L7.05687 7.99967L3.52827 4.47108C3.26792 4.21073 3.26792 3.78862 3.52827 3.52827Z"
    fill="currentColor" />
</svg>