                <svg width="14" height="14" viewBox="0 0 14 14" fill="none" xmlns="http://www.w3.org/2000/svg">
                <path fill-rule="evenodd" clip-rule="evenodd" d="M0.347856 11.2649L0.830954 9.09097C0.940972 8.59589 1.18989 8.14245 1.5485 7.78384L8.11379 1.21855C9.15518 0.177152 10.8436 0.177149 11.885 1.21855L12.7805 2.11398C13.8219 3.15538 13.8219 4.84382 12.7805 5.88521L6.21517 12.4505C5.85655 12.8091 5.40311 13.058 4.90803 13.1681L2.73409 13.6511C1.30509 13.9687 0.0303015 12.6939 0.347856 11.2649ZM2.13254 9.38021L1.64944 11.5542C1.54359 12.0305 1.96852 12.4554 2.44485 12.3496L4.61879 11.8665C4.85686 11.8136 5.07567 11.6964 5.25157 11.528L2.47097 8.74744C2.30258 8.92334 2.18544 9.14215 2.13254 9.38021ZM3.41355 7.8044L6.1946 10.5855L9.91846 6.86159L7.13741 4.08055L3.41355 7.8044ZM11.8376 4.94241L10.8613 5.91879L8.08022 3.13774L9.0566 2.16136C9.5773 1.64066 10.4215 1.64066 10.9422 2.16136L11.8376 3.05679C12.3583 3.57749 12.3583 4.42171 11.8376 4.94241Z" fill="#FCFCFD"/>
                </svg>