<svg width="20" height="20" viewBox="0 0 20 20" fill="none" xmlns="http://www.w3.org/2000/svg">
<path fill-rule="evenodd" clip-rule="evenodd"
    d="M9.99935 16.667C13.6813 16.667 16.666 13.6822 16.666 10.0003C16.666 6.31843 13.6813 3.33366 9.99935 3.33366C6.31745 3.33366 3.33268 6.31843 3.33268 10.0003C3.33268 13.6822 6.31745 16.667 9.99935 16.667ZM9.99935 18.3337C14.6017 18.3337 18.3327 14.6027 18.3327 10.0003C18.3327 5.39795 14.6017 1.66699 9.99935 1.66699C5.39697 1.66699 1.66602 5.39795 1.66602 10.0003C1.66602 14.6027 5.39697 18.3337 9.99935 18.3337Z"
    fill="currentColor" />
<path
    d="M9.99935 8.33301C9.99935 7.87277 10.3724 7.49967 10.8327 7.49967H11.666C12.1263 7.49967 12.4993 7.12658 12.4993 6.66634C12.4993 6.20611 12.1263 5.83301 11.666 5.83301H10.8327C9.45193 5.83301 8.33268 6.9523 8.33268 8.33301V9.99967H7.49935C7.03912 9.99967 6.66602 10.3728 6.66602 10.833C6.66602 11.2933 7.03911 11.6663 7.49935 11.6663H8.33268V16.6663C8.33268 17.1266 8.70577 17.4997 9.16602 17.4997C9.62627 17.4997 9.99935 17.1266 9.99935 16.6663V11.6663H11.666C12.1263 11.6663 12.4993 11.2933 12.4993 10.833C12.4993 10.3728 12.1263 9.99967 11.666 9.99967H9.99935V8.33301Z"
    fill="currentColor" />
</svg>