<svg width="16" height="16" viewBox="0 0 16 16" fill="none" xmlns="http://www.w3.org/2000/svg">
    <path fill-rule="evenodd" clip-rule="evenodd"
        d="M8 7.33333C6.81828 7.33333 5.76562 7.37637 4.90558 7.43104C4.08981 7.4829 3.46253 8.10532 3.40398 8.91533C3.36233 9.49155 3.33333 10.0987 3.33333 10.6667C3.33333 11.2346 3.36233 11.8418 3.40398 12.418C3.46253 13.228 4.08981 13.8504 4.90559 13.9023C5.76562 13.957 6.81828 14 8 14C9.18172 14 10.2344 13.957 11.0944 13.9023C11.9102 13.8504 12.5375 13.228 12.596 12.418C12.6377 11.8418 12.6667 11.2346 12.6667 10.6667C12.6667 10.0987 12.6377 9.49155 12.596 8.91533C12.5375 8.10532 11.9102 7.4829 11.0944 7.43104C10.2344 7.37637 9.18172 7.33333 8 7.33333ZM4.821 6.10039C3.34251 6.19437 2.18092 7.34158 2.07412 8.81921C2.03101 9.41559 2 10.0566 2 10.6667C2 11.2767 2.03101 11.9177 2.07412 12.5141C2.18092 13.9918 3.34251 15.139 4.821 15.2329C5.70519 15.2891 6.78631 15.3333 8 15.3333C9.2137 15.3333 10.2948 15.2891 11.179 15.2329C12.6575 15.139 13.8191 13.9918 13.9259 12.5141C13.969 11.9177 14 11.2767 14 10.6667C14 10.0566 13.969 9.41559 13.9259 8.81921C13.8191 7.34158 12.6575 6.19437 11.179 6.10039C10.2948 6.04419 9.21369 6 8 6C6.78631 6 5.70519 6.04419 4.821 6.10039Z"
        fill="#777E91" />
    <path fill-rule="evenodd" clip-rule="evenodd"
        d="M8.66602 11.1553C9.06455 10.9247 9.33268 10.4938 9.33268 10.0003C9.33268 9.26395 8.73573 8.66699 7.99935 8.66699C7.26297 8.66699 6.66602 9.26395 6.66602 10.0003C6.66602 10.4938 6.93415 10.9247 7.33268 11.1553V12.0003C7.33268 12.3685 7.63116 12.667 7.99935 12.667C8.36754 12.667 8.66602 12.3685 8.66602 12.0003V11.1553Z"
        fill="#777E91" />
    <path fill-rule="evenodd" clip-rule="evenodd"
        d="M4.66602 4.00033C4.66602 2.15938 6.1584 0.666992 7.99935 0.666992C9.8403 0.666992 11.3327 2.15938 11.3327 4.00033V6.66699C11.3327 7.03518 11.0342 7.33366 10.666 7.33366C10.2978 7.33366 9.99935 7.03518 9.99935 6.66699V4.00033C9.99935 2.89576 9.10392 2.00033 7.99935 2.00033C6.89478 2.00033 5.99935 2.89576 5.99935 4.00033V6.66699C5.99935 7.03518 5.70087 7.33366 5.33268 7.33366C4.96449 7.33366 4.66602 7.03518 4.66602 6.66699V4.00033Z"
        fill="#777E91" />
</svg>