                        <svg width="20" height="20" viewBox="0 0 20 20" fill="none" xmlns="http://www.w3.org/2000/svg">
                            <path fill-rule="evenodd" clip-rule="evenodd"
                                d="M13.3327 3.33366H6.66602C4.82507 3.33366 3.33268 4.82604 3.33268 6.66699V13.3337C3.33268 15.1746 4.82507 16.667 6.66602 16.667H13.3327C15.1736 16.667 16.666 15.1746 16.666 13.3337V6.66699C16.666 4.82604 15.1736 3.33366 13.3327 3.33366ZM6.66602 1.66699C3.90459 1.66699 1.66602 3.90557 1.66602 6.66699V13.3337C1.66602 16.0951 3.90459 18.3337 6.66602 18.3337H13.3327C16.0941 18.3337 18.3327 16.0951 18.3327 13.3337V6.66699C18.3327 3.90557 16.0941 1.66699 13.3327 1.66699H6.66602Z"
                                fill="currentColor" />
                            <path
                                d="M14.1673 6.66667C14.6276 6.66667 15.0007 6.29357 15.0007 5.83333C15.0007 5.3731 14.6276 5 14.1673 5C13.7071 5 13.334 5.3731 13.334 5.83333C13.334 6.29357 13.7071 6.66667 14.1673 6.66667Z"
                                fill="currentColor" />
                            <path fill-rule="evenodd" clip-rule="evenodd"
                                d="M14.1673 9.99967C14.1673 12.3008 12.3018 14.1663 10.0007 14.1663C7.69947 14.1663 5.83398 12.3008 5.83398 9.99967C5.83398 7.69849 7.69947 5.83301 10.0007 5.83301C12.3018 5.83301 14.1673 7.69849 14.1673 9.99967ZM12.5007 9.99967C12.5007 11.3804 11.3814 12.4997 10.0007 12.4997C8.6199 12.4997 7.50065 11.3804 7.50065 9.99967C7.50065 8.61892 8.6199 7.49967 10.0007 7.49967C11.3814 7.49967 12.5007 8.61892 12.5007 9.99967Z"
                                fill="currentColor" />
                        </svg>