<svg width="16" height="16" viewBox="0 0 16 16" fill="none" xmlns="http://www.w3.org/2000/svg">
    <path fill-rule="evenodd" clip-rule="evenodd"
        d="M7.9987 13.332C10.9442 13.332 13.332 10.9442 13.332 7.9987C13.332 5.05318 10.9442 2.66536 7.9987 2.66536C5.05318 2.66536 2.66536 5.05318 2.66536 7.9987C2.66536 10.9442 5.05318 13.332 7.9987 13.332ZM7.9987 14.6654C11.6806 14.6654 14.6654 11.6806 14.6654 7.9987C14.6654 4.3168 11.6806 1.33203 7.9987 1.33203C4.3168 1.33203 1.33203 4.3168 1.33203 7.9987C1.33203 11.6806 4.3168 14.6654 7.9987 14.6654Z"
        fill="#777E91" />
    <path fill-rule="evenodd" clip-rule="evenodd"
        d="M9.16575 12.1165C9.65822 11.1315 10.0013 9.67754 10.0013 7.9987C10.0013 6.31986 9.65822 4.86588 9.16575 3.88094C8.63341 2.81625 8.14467 2.66536 8.0013 2.66536C7.85793 2.66536 7.36919 2.81625 6.83685 3.88094C6.34438 4.86588 6.0013 6.31986 6.0013 7.9987C6.0013 9.67754 6.34438 11.1315 6.83685 12.1165C7.36919 13.1811 7.85793 13.332 8.0013 13.332C8.14467 13.332 8.63341 13.1811 9.16575 12.1165ZM8.0013 14.6654C9.84225 14.6654 11.3346 11.6806 11.3346 7.9987C11.3346 4.3168 9.84225 1.33203 8.0013 1.33203C6.16035 1.33203 4.66797 4.3168 4.66797 7.9987C4.66797 11.6806 6.16035 14.6654 8.0013 14.6654Z"
        fill="#777E91" />
    <path fill-rule="evenodd" clip-rule="evenodd"
        d="M14.6324 8.66536C14.6542 8.44609 14.6654 8.2237 14.6654 7.9987C14.6654 7.7737 14.6542 7.5513 14.6324 7.33203H1.36495C1.34318 7.5513 1.33203 7.7737 1.33203 7.9987C1.33203 8.2237 1.34318 8.44609 1.36495 8.66536H14.6324Z"
        fill="#777E91" />
</svg>