<svg width="32" height="32" viewBox="0 0 32 32" fill="none" xmlns="http://www.w3.org/2000/svg">
<g clip-path="url(#clip0_7869_1091)">
<path d="M13.247 1.05997C14.9504 0.0765275 17.0491 0.0765278 18.7524 1.05997L27.5616 6.14595C29.265 7.12939 30.3143 8.94687 30.3143 10.9137V21.0857C30.3143 23.0526 29.265 24.8701 27.5616 25.8535L18.7524 30.9395C17.0491 31.9229 14.9504 31.9229 13.247 30.9395L4.43786 25.8535C2.73449 24.8701 1.68517 23.0526 1.68517 21.0857V10.9137C1.68517 8.94687 2.73449 7.12939 4.43786 6.14595L13.247 1.05997Z" fill="url(#paint0_linear_7869_1091)"/>
<mask id="mask0_7869_1091" style="mask-type:alpha" maskUnits="userSpaceOnUse" x="1" y="0" width="30" height="32">
<path d="M13.247 1.05997C14.9504 0.0765275 17.0491 0.0765278 18.7524 1.05997L27.5616 6.14595C29.265 7.12939 30.3143 8.94687 30.3143 10.9137V21.0857C30.3143 23.0526 29.265 24.8701 27.5616 25.8535L18.7524 30.9395C17.0491 31.9229 14.9504 31.9229 13.247 30.9395L4.43786 25.8535C2.73449 24.8701 1.68517 23.0526 1.68517 21.0857V10.9137C1.68517 8.94687 2.73449 7.12939 4.43786 6.14595L13.247 1.05997Z" fill="#83E1E1"/>
</mask>
<g mask="url(#mask0_7869_1091)">
<path d="M6.28563 12.4722L-3.16106 18.361L-11.3451 23.8607C-11.6495 24.0653 -11.832 24.4079 -11.832 24.7746V50.8599C-11.832 51.468 -11.3391 51.961 -10.731 51.961H43.7379C44.346 51.961 44.8389 51.4681 44.8389 50.8599V27.5603C44.8389 27.1831 44.6459 26.8322 44.3273 26.6303L16.7544 9.15569C16.319 8.87976 15.7505 8.94282 15.3861 9.30745L10.6363 14.0609C10.2062 14.4913 9.5086 14.4913 9.07854 14.0609L7.64699 12.6283C7.28481 12.2658 6.72046 12.2011 6.28563 12.4722Z" fill="url(#paint1_linear_7869_1091)"/>
<path d="M6.62637 15L1 19.5333H5.30769C5.72967 19.5333 7.30037 21.8444 8.03297 23L9 17.5778L6.62637 15Z" fill="url(#paint2_linear_7869_1091)"/>
<path d="M13.0193 17L16 12L28 19L25.2516 20.2191L18.5 20L12 26L15 19L13.0193 17Z" fill="url(#paint3_linear_7869_1091)"/>
</g>
</g>
<defs>
<linearGradient id="paint0_linear_7869_1091" x1="15.9997" y1="-0.529297" x2="15.9997" y2="32.5288" gradientUnits="userSpaceOnUse">
<stop stop-color="#22AFFF"/>
<stop offset="1" stop-color="#1D41FF"/>
</linearGradient>
<linearGradient id="paint1_linear_7869_1091" x1="16.5035" y1="8.68359" x2="16.5035" y2="51.961" gradientUnits="userSpaceOnUse">
<stop stop-color="#1B3573"/>
<stop offset="1" stop-color="#131E39"/>
</linearGradient>
<linearGradient id="paint2_linear_7869_1091" x1="8.5" y1="16" x2="-3" y2="33" gradientUnits="userSpaceOnUse">
<stop stop-color="#FCFCFD"/>
<stop offset="1" stop-color="white" stop-opacity="0"/>
</linearGradient>
<linearGradient id="paint3_linear_7869_1091" x1="16.5" y1="12" x2="27" y2="50" gradientUnits="userSpaceOnUse">
<stop stop-color="white"/>
<stop offset="1" stop-color="#192E5F"/>
</linearGradient>
<clipPath id="clip0_7869_1091">
<rect width="32" height="32" fill="white"/>
</clipPath>
</defs>
</svg>
